<svg fill="none" height="15" viewBox="0 0 15 15" width="15" xmlns="http://www.w3.org/2000/svg"><path d="m1.42502 2.11765.30682.64706m-.98184 1.88235.30682.64706m5.27729-3.17647.30681.70588m-2.76137-1.82353.30682.64706m6.93403 5.11765-.3068.64706m-2.14771.47058-.30682.70589m5.89093 1.82356-.3068.647m-.3682-3.17645-.3068.64706m-9.32726-4.29411c.42954-.17648.92045-.17648 1.35.05882l1.65682.82353c.55227.29412.73636 1 .30681 1.47059-.18409.23529-.49091.35294-.79772.35294h-.73637c-.30681 0-.61363.11764-.79772.35294l-.42955.52941c-.18409.2353-.49091.35294-.79773.35294-.61363 0-1.10454-.58823-.98182-1.17647l.36819-1.7647c.12272-.41177.42954-.82353.85909-1zm7.11816 5.7647c.4295.1765.7364.5882.8591 1.0588l.3682 1.7647c.1227.5883-.3068 1.1765-.9818 1.1765-.3069 0-.6137-.1176-.7978-.3529l-.4295-.5295c-.18411-.2352-.49093-.3529-.79775-.3529h-.73636c-.30682 0-.61364-.1176-.79773-.3529-.36818-.4706-.24545-1.1765.30682-1.4706l1.65682-.8236c.3682-.29407.9205-.3529 1.35-.1176z" stroke="#000" stroke-linecap="square" stroke-linejoin="round" stroke-miterlimit="10"/></svg>